<?xml version="1.0" encoding="utf-8"?>
<!-- Generator: Adobe Illustrator 24.2.3, SVG Export Plug-In . SVG Version: 6.00 Build 0)  -->
<svg version="1.1" id="Layer_1" xmlns="http://www.w3.org/2000/svg" xmlns:xlink="http://www.w3.org/1999/xlink" x="0px" y="0px"
	 viewBox="0 0 2880.1 2659.6" style="enable-background:new 0 0 2880.1 2659.6;" xml:space="preserve">
<path d="M740.5,702c-7.3,40.9-13.1,82.1-22.4,122.5c-29.1,126.6-64.3,251.4-113.8,371.9C562.1,1299.1,504,1392,433.1,1477
	c-18.8,22.5-41.6,41.8-65.4,65.4c0,37.1-2.1,79.6,0.4,121.9c5.8,99,17.6,197.4,40.2,294.2c24.3,104,60.5,203.2,118.4,293.5
	c105,163.9,256.8,260.8,443,307.6c103.4,26,208.9,35.3,315.3,35.4c243.8,0.4,481.6-37.3,713.5-112.3
	c67.1-21.7,131.8-48.9,193.9-82.6c164.9-89.6,264.4-226.1,299-410.5c17.9-95.7,28.9-192,30.9-289.3c1.6-78.3,3.7-156.6,3-234.9
	c-1.1-127.8-4.3-255.6-6.4-383.4c-0.1-4.5,1.3-9,6.5-13.6c6.1,31.3,12.9,62.5,18.1,93.9c12,73.2,26.3,146.2,33.9,219.9
	c7.6,73.8,10.3,148.3,11.1,222.6c1.1,104.1-4.9,208.1-19.5,311.3c-10.9,77.7-26.5,154.4-56.1,227.4c-52.3,129.1-143.7,224.1-261,296
	c-99.8,61.1-208.9,100.1-320.9,131.2c-145.4,40.5-293.4,67.2-444,79.8c-108.9,9.1-217.7,12.5-326.7,3.8
	c-123.2-9.9-243.6-32.5-356.9-84.2c-208.6-95.2-343.8-256-418.8-470.4c-34.5-98.8-53.8-200.9-64.8-304.6
	c-11.2-105.6-15.2-211.6-12.3-317.8c1.9-71.3,6.6-142.6,12.5-213.6c2.5-29.8,11.5-59,21-88.4c13.5,25.4,19.6,51.9,20.2,79.2
	c1,46.5,0.5,93,1.1,139.5c0.3,20.7,1.7,41.3,2.9,68.4c9-10.1,14-15.4,18.5-21c121.1-150.5,190.2-325.9,244.6-508.4
	c16.4-55.1,32.1-110.3,48.7-165.4c5.4-18,11.3-36,19-53.1c11.3-25.1,21.6-27.2,45.7-11.8L740.5,702z"/>
<path d="M760.4,86.8c-4.3-17.5,7.4-23.9,17.7-27.7c34.3-12.5,68.6-25.7,104-34.1c65.7-15.7,133-22.5,200.4-23.5
	c94.1-1.5,188.5-3.2,282.4,1.7c143.6,7.6,285.9,28.1,426.7,57.5c142.8,29.8,283.1,68.3,418.1,124.5c77,32,151.4,69.3,222.1,113.6
	c219.6,137.4,356.7,333.4,416.6,584.7c21.7,91.1,30.5,183.4,31.3,277c1.3,155.2-9.5,309.1-43.1,460.9
	c-15.9,71.8-37.8,141.6-68.9,208.4c-16.6,35.4-42.5,60.9-79.3,80.5c-1.5-35.1,3.6-66.2,14.1-97.3c22.8-67.5,47.1-134.8,64.6-203.8
	c28.2-110.7,37.7-224.6,46.3-338.3c6.8-89.3,3.7-178.3-6.8-267.1c-25-211.3-102.5-398.5-258.6-547.7
	C2448.8,361,2331.7,292.9,2206,239c-162-69.5-330.8-115.9-503.9-147.5c-174.9-32-351.3-50-529.2-47.4c-105,1.5-210,7.7-313.7,26.8
	C827.3,76.6,795.1,81.2,760.4,86.8z"/>
<path d="M0.1,1300.3c3-326.4,52.9-576.4,157.9-814.8c30.1-68.2,66.1-133.3,113.1-191.6c35-43.5,73.5-83.5,124.1-109.4
	c33.2-16.9,67.7-28.9,105.7-17.9c6.6,1.9,14.1,3.8,18.6,8.3c5.1,5,8.9,12.8,9.9,19.8c0.3,2.2-10.3,7.9-16.3,8.6
	c-59.4,6.9-105.6,38.1-146.1,79.2c-43.6,44.1-77.9,95.1-106.9,149.6C192,559.9,148.7,696.6,116.7,837.3
	c-29.2,128.1-44.9,258-44.9,389.2c0,217.3,44.7,425.1,140.4,621.1c28.5,58.3,65.6,110.8,106.2,161.1c5,6.2,11.8,12.2,13.5,19.3
	c2.5,10.8,5,24.2,0.6,33.3c-6.2,12.8-21.5,13.4-34.4,9.3c-9.2-2.9-18.6-7.6-25.9-13.9c-11.9-10.3-22.9-22-32.9-34.2
	c-77-93.2-126.8-200.7-163.7-314.7C25.7,1553.8-2.1,1396.3,0.1,1300.3z"/>
<path d="M741.5,703c-2.5-13.1-5-26.2-7.7-40.3c22.6-4,31.1,11.5,42.2,21.5c44.1,39.8,85.9,82.5,132.3,119.4
	c164.4,130.8,348.8,225.9,545.5,298.1c187.7,68.9,380.5,116.9,578.9,141.4c95.5,11.8,191.4,18.2,287.7,15.4
	c48.8-1.4,96.8,4.1,144.6,12.3c2.6,0.4,4.8,2.8,9.1,5.5c-44.6,26.7-91.3,39.4-141.4,40.6c-126.2,3.2-251.6-6.6-376.2-26.1
	c-262.2-41-512.5-120.5-750.9-237.2C1089.5,996.8,981.1,927.3,880.5,846c-51-41.2-99.5-85.1-135-141.2c-0.9-1.4-3.3-1.9-5-2.8
	C740.5,702,741.5,703,741.5,703z"/>
<path d="M1236.4,1769.6c55.8,20.2,108.8,46.4,168.3,54.1c94.9,12.4,173.5-16.5,236.4-88.2c14.5-16.5,28.1-33.5,53.8-35.4
	c18.7,15.7,22.6,36.7,12.2,57.8c-9.4,19.2-21.4,38.4-36.5,53.3c-66.6,65.9-148.3,92-240.9,85.9c-50.2-3.3-97.6-17.1-139.2-45.9
	c-16.7-11.6-31-27.3-44.5-42.8C1237.1,1798,1231.8,1784.7,1236.4,1769.6z"/>
<path d="M1895.7,1450.8c-0.1-31.7,25.4-59.8,54-59.7c38.8,0.1,70.4,29,71.4,65.4c0.9,31.8-27.9,61.6-59.9,61.9
	C1926.9,1518.8,1895.8,1486.7,1895.7,1450.8z"/>
<path d="M818.1,1603.3c-2.2-0.2-7.2-0.2-11.9-1.5c-24.5-6.6-45.4-46.5-41.2-78.4c3.2-24.1,26.6-43.9,52.1-44.2
	c30.3-0.3,54.1,20.6,59.2,51.9C882.5,1569.4,856.5,1603.3,818.1,1603.3z"/>
</svg>
