<?xml version="1.0" encoding="UTF-8"?>
<svg enable-background="new 0 0 2541.1 1373" version="1.1" viewBox="0 0 2541.1 1373" xml:space="preserve" xmlns="http://www.w3.org/2000/svg" xmlns:cc="http://creativecommons.org/ns#" xmlns:dc="http://purl.org/dc/elements/1.1/" xmlns:rdf="http://www.w3.org/1999/02/22-rdf-syntax-ns#"><metadata><rdf:RDF><cc:Work rdf:about=""><dc:format>image/svg+xml</dc:format><dc:type rdf:resource="http://purl.org/dc/dcmitype/StillImage"/><dc:title/></cc:Work></rdf:RDF></metadata>
<g fill="none" stroke="#000" stroke-linecap="round"><g stroke-width="27.591">
	
<path d="m68.911 553.04c0.28373-64.649 15.132-118.81 48.234-167.39 13.714-20.226 30.264-37.901 51.071-51.039 38.02-24.007 77.174-24.763 116.61-4.2532 28.751 14.934 49.652 38.373 66.487 65.5 22.131 35.727 34.804 74.573 38.02 116.44 4.7288 60.396-7.3769 117.11-37.547 169.66-13.335 23.251-30.643 43.194-53.246 57.938-43.883 28.638-89.658 33.648-136.57 8.0338-26.103-14.272-44.64-36.578-59.205-62.191-17.78-31.379-27.522-65.405-31.588-101.13-1.2295-12.571-1.7969-25.141-2.2698-31.568zm214.31-162.76c0-2.4574-0.0946-5.0093 0-7.4668 0.37831-13.61-4.5396-24.385-16.456-31.852-13.997-8.79-29.697-11.436-45.302-9.4516-14.186 1.7013-28.089 6.8052-41.897 10.775-2.8373 0.85065-5.2963 3.2135-7.7552 5.1984-17.307 13.61-31.116 30.434-41.803 49.526-44.167 78.921-48.518 160.68-15.51 244.42 8.701 22.211 21.469 41.965 39.155 58.316 33.858 31.379 79.16 36.956 119.73 14.65 24.401-13.421 43.032-32.986 56.462-56.993 33.196-59.545 43.505-122.87 27.9-189.6-9.6468-41.02-28.467-77.219-59.205-106.61-3.121-2.93-6.6203-5.4819-10.876-8.979-0.75661 10.397 0.94576 19.659-4.4451 28.071z"/><path d="m428.21 663.62c6.4312 12.193 13.241 24.291 19.294 36.672 14.659 30.434 43.978 44.233 76.985 41.871 5.58-0.37806 11.255-1.4177 16.645-3.119 5.0125-1.5123 10.12-3.6861 14.565-6.6161 13.997-8.979 15.605-20.132 4.1614-32.041-5.8637-6.049-12.673-11.342-19.672-16.162-19.01-13.138-39.911-22.873-60.812-32.419-17.213-7.8448-34.331-15.784-51.166-24.385-6.6203-3.4026-13.052-7.8448-18.537-12.949-13.714-12.854-12.106-29.394 3.4993-39.886 4.918-3.3081 10.403-5.9545 15.983-7.9393 27.332-9.2626 55.327-11.909 83.794-6.9942 5.1071 0.85064 10.214 3.2135 14.754 5.86 4.5396 2.6464 7.3769 7.0887 6.3366 12.76s-5.0125 8.5064-10.309 9.7351c-10.498 2.4574-20.996 2.2684-32.061-0.75612 4.918-1.7958 9.8359-3.4971 15.227-5.3874-16.362-6.4271-66.771 2.0794-81.903 13.894 2.2698 4.2532 6.3366 6.7106 10.403 8.79 12.862 6.6161 26.008 12.854 38.965 19.281 23.455 11.625 47.004 22.873 70.081 35.065 13.052 6.8997 24.968 15.973 34.899 27.221 6.3366 7.1832 11.16 15.217 12.2 25.047 1.4186 13.799-3.121 25.425-12.957 34.971-11.917 11.625-26.67 17.958-42.843 20.321-31.305 4.6313-60.34-1.0397-85.119-21.928-14.943-12.665-24.684-28.544-26.576-48.487-1.0403-10.964 0.85118-21.739 4.1614-32.419z"/><path d="m728.96 581.02c-12.579-8.79-25.441-9.2626-39.627-4.1587-13.146 4.7258-25.914 9.9242-36.317 19.565-42.37 39.035-34.331 106.9 16.645 135.72 29.602 16.729 59.867 17.769 89.753-0.28355 18.253-10.964 36.506-22.022 55.422-33.364-1.0403 2.1739-1.7024 4.0642-2.9319 5.671-8.7956 11.531-17.024 23.534-26.576 34.309-24.59 27.693-55.989 37.05-91.644 29.111-46.626-10.397-77.174-38.846-87.861-85.915-10.309-45.557 12.106-91.964 52.49-110.77 14.848-6.8997 30.454-10.208 46.815-7.4668 10.593 1.7958 19.199 6.9942 23.833 17.58z"/><path d="m972.49 783.85c-9.363-6.1435-14.186-14.839-15.983-25.614-3.6885-21.739-7.6607-43.383-11.444-65.121-0.37831-2.0794-1.1349-4.0642-1.6078-5.86-0.85118-0.18903-1.2295-0.28355-1.4186-0.18903-19.861 10.869-41.803 10.491-63.555 11.247-9.5522 0.28355-9.6468 0.0945-11.917 9.2626-3.4993 14.083-6.5258 28.166-10.309 42.154-1.6078 5.9545-4.4451 11.814-7.3769 17.296-1.1349 2.0794-4.1614 4.2532-6.3366 4.2532-3.6885 0.0945-5.0125-3.5916-5.0125-6.8051 0-8.2229-0.18915-16.446 0.75661-24.48 1.6078-13.705 3.9722-27.315 6.0529-41.209-7.0932-2.5519-15.227-0.85064-23.455-6.5216 6.8095-2.2684 11.822-4.7258 17.213-5.5764 7.7552-1.3232 10.403-5.671 12.106-12.949 5.2963-22.684 11.16-45.273 17.78-67.484 3.2156-10.775 8.1336-21.172 13.335-31.19 3.0264-5.7655 7.4715-11.058 12.295-15.406 10.971-9.9242 24.401-9.2626 34.426 1.6068 4.6342 5.0093 8.4173 10.964 11.633 17.107 10.309 19.376 16.173 40.358 20.239 61.719 7.2824 37.712 13.714 75.518 20.523 113.32 1.8915 11.058 0.28373 21.55-7.9444 30.434zm-61.569-207.56c-14.092 12.382-32.912 65.783-36.412 100.94 11.349-1.3232 22.415-3.5916 33.669-3.7806 10.971-0.28354 22.036 1.5123 33.858 2.4574-1.5132-8.1284-2.8373-16.162-4.3505-24.102-4.0668-20.321-8.6064-40.642-17.402-59.545-2.6481-5.2929-5.9583-10.208-9.363-15.973z"/><path d="m1012.8 560.98c-13.714 4.4422-26.86 8.79-40.006 13.043-2.7427-2.93-0.85119-5.4819 1.0403-7.3722 5.2963-4.9148 10.403-10.302 16.456-13.988 25.441-15.69 53.152-24.291 83.416-23.062 5.2962 0.18903 10.687 1.1342 15.794 2.5519 25.63 7.1832 38.871 29.205 34.52 57.088-2.6481 16.729-8.3227 32.513-17.402 46.596-9.8359 15.312-21.09 29.772-31.778 44.517-1.6078 2.2684-3.5939 4.2532-5.9583 6.9942 2.7427 1.2287 4.8234 2.2684 7.0932 3.0245 29.508 10.491 57.219 24.669 83.984 40.736 12.011 7.2777 20.428 17.202 25.441 30.812-13.146 0.47258-24.779-2.0794-35.844-8.3174-17.213-9.8296-34.52-19.565-52.301-28.26-12.106-5.9545-24.968-10.302-37.547-15.312-3.121-1.2287-6.4312-1.8903-11.065-3.2135 1.2295 9.4516 1.9861 17.485 3.4047 25.519 1.7024 9.8296 4.0668 19.565 6.1475 29.394 0.9458 4.2532-1.6078 9.0735-6.1475 11.72-5.4854 3.2135-12.484 2.741-16.362-2.0794-2.459-3.0245-4.4451-6.9942-5.2017-10.869-2.1753-10.491-3.9722-21.077-5.3909-31.663-5.9583-45.557-10.971-91.208-12.106-137.24-0.3783-9.7351-0.1892-19.47-0.1892-30.623zm31.967 116.44c25.346-25.614 46.721-51.606 55.894-85.537 1.324-4.8203 1.7023-9.9242 1.7023-14.934-0.1891-13.61-6.904-21.644-20.145-24.574-19.672-4.3477-38.587-1.2287-57.029 4.9148 6.4312 39.791 12.862 78.921 19.577 120.13z"/><path d="m1206.3 538.29c-0.662 6.5216-1.2295 12.76-1.9861 18.998-0.1891 1.7958-0.8512 3.6861-1.7023 5.3874-1.7024 3.6861-4.7288 5.9545-8.8902 5.86-4.1613-0.0945-7.1878-2.4574-8.4173-6.4271-1.0403-3.2135-1.9861-6.8051-1.7023-10.113 1.0403-14.366 2.2698-28.733 3.9722-43.005 0.5674-4.4422 1.2294-9.8297 6.8094-11.342 3.4048-0.85064 6.9987 3.4026 8.2282 11.058 1.7969 9.8296 2.5535 19.848 3.6884 29.583z"/><path d="m1260.2 547.46c4.7288 4.5368 7.6607 8.3174 11.444 10.869 10.214 6.8051 20.618 13.327 31.116 19.565 13.524 7.9393 27.805 14.839 40.952 23.534 11.727 7.7503 22.982 16.635 33.196 26.37 6.7149 6.3326 12.295 14.461 16.551 22.778 11.065 21.077 8.701 41.682-5.9583 60.112-21.563 27.221-50.22 35.727-83.511 27.788-19.672-4.6313-36.979-14.177-50.409-29.867-10.782-12.665-13.052-27.882-13.619-44.895 9.9305 9.6406 18.915 18.242 27.711 26.937 17.591 17.391 38.114 27.599 63.461 26.181 14.848-0.85064 27.332-7.2777 37.074-18.336 11.349-12.949 12.673-26.748 4.3505-41.871-5.58-10.113-13.43-18.431-22.698-25.047-12.295-8.6955-25.157-16.729-38.114-24.48-12.106-7.2777-24.968-13.516-36.885-21.077-8.9847-5.671-17.78-12.098-25.252-19.659-13.714-13.894-11.255-30.812 5.9583-39.886 24.306-12.854 49.558-12.854 74.621-1.7958 4.0667 1.7958 7.8498 5.3874 10.687 8.979 5.4854 7.1832 3.9722 11.247-5.58 16.824 2.8373-6.4271-1.3241-8.2229-5.3909-9.8296-11.633-4.7258-23.928-6.049-36.128-4.8203-7.7553 0.75612-15.321 3.308-22.888 5.5764-3.0264 1.0397-5.7691 3.3081-10.687 6.049z"/><path d="m422.34 964.47c1.3241 2.1739 2.5536 4.2532 3.8776 6.4271 0.85118 0 1.7969 0.18903 2.6481 0 32.912-7.5613 66.014-9.5461 99.305-2.93 10.876 2.1739 21.28 5.86 30.643 11.814 19.766 12.571 28.089 31.946 21.753 54.536-2.9319 10.491-7.6607 20.699-13.335 29.962-18.348 30.056-44.924 51.511-75.188 68.713-22.887 13.043-31.778 16.068-56.557 19.47 2.2698 53.212 4.4451 106.61 6.7149 160.39h9.6468c-2.2698 10.019-8.4173 16.257-17.497 19.376-8.3227 2.8354-16.551-2.4574-18.442-11.436-0.75661-3.9696-0.85119-8.1283-0.94576-12.192-1.3241-40.547-2.7427-81.189-3.6885-121.83-0.94576-38.373-1.8915-76.841-1.7024-115.21 0.0946-25.425 2.1752-50.85 3.4047-76.274 0-0.94515 0.47288-2.1739 0.0946-2.8355-6.5258-10.869 4.4451-17.485 6.4312-26.181 0.37831-0.66161 1.7024-1.0397 2.8373-1.7958zm12.389 169.09c6.242-1.9849 11.727-3.3081 16.835-5.3874 24.306-10.113 46.531-23.724 66.582-40.642 12.295-10.397 23.266-22.211 31.778-35.916 4.2559-6.8996 7.9444-14.366 10.403-22.022 4.5396-14.177 0.0946-25.897-13.052-32.797-8.5118-4.4422-17.969-7.9393-27.333-9.6406-24.306-4.4422-48.896-3.2135-73.391-1.4177-6.0529 0.47258-12.106 1.6068-17.969 2.3629 1.9861 48.77 3.9722 96.406 6.1474 145.46z"/><path d="m605.63 1306.9c8.8522-1.3241 17.591-1.9848 26.198-2.93 5.9583-0.6616 11.917-0.9451 17.875-1.7013 12.484-1.5122 23.549 1.6068 34.047 9.3571-7.1878 6.5216-14.754 11.814-24.401 13.421-20.807 3.497-41.614 6.8996-62.515 10.019-9.5522 1.4178-16.267-4.8203-16.929-15.69-0.85119-16.351-1.797-32.702-2.0807-49.054-0.28373-24.196-0.66203-48.487 0.0946-72.683 0.75661-24.858 2.3644-49.715 7.9444-74.006 1.1349-4.8203 3.3102-9.5461 5.9583-13.705 2.6481-4.0642 7.0932-2.8355 8.2281 1.8903 0.66204 2.741 0.56746 5.5765 0.56746 8.4119-0.18915 28.638-1.1349 57.277-0.56746 85.915 0.75661 32.135 2.8373 64.176 4.3505 96.217 0.28373 1.3233-12.114 6.5327-10.096 6.2309z"/><path d="m799.04 1221.7c-18.537 8.5064-38.114 8.0339-57.502 12.004-2.0807 14.461-4.0668 28.733-6.0529 43.005-0.85119 6.2381-1.5132 12.476-2.2698 18.714-0.18915 1.5122-0.56746 3.119-1.1349 4.5368-1.4186 3.7806-3.6885 6.7106-8.1336 6.8051-4.8234 0.189-8.2281-2.6464-8.8902-6.8997-1.2295-7.3722-2.2698-15.028-1.7969-22.4 0.94576-14.461 2.5536-28.827 4.5396-43.194 5.8637-41.114 13.146-70.792 27.143-102.36 5.0125-11.436 11.538-22.4 18.537-32.797 3.4993-5.1984 9.1739-9.6406 14.754-12.665 10.687-5.86 21.563-2.0794 27.049 8.7899 2.6481 5.2929 4.6342 11.153 5.4854 16.918 3.4047 23.629 6.3366 47.352 9.2685 71.076 4.8234 39.319 9.5522 78.637 14.281 118.05 0.47288 3.9696 0.94576 8.3174-0.0946 12.098-2.1752 8.3174-11.16 10.491-16.835 4.1587-2.8373-3.119-4.918-7.4667-5.8637-11.625-2.459-11.058-4.5397-22.211-6.0529-33.364-2.459-16.446-4.2559-32.986-6.4312-50.85zm-2.0807-17.58c1.1349-26.842-6.3366-87.711-12.673-96.595-21.942 31.474-31.872 66.634-38.587 104.16 17.875-2.6464 34.237-5.0093 51.26-7.5613z"/><path d="m938.63 1155.4c8.6064-13.799 16.456-26.276 24.306-38.846s15.416-25.236 23.644-37.617c2.7427-4.1587 6.3366-7.9393 10.214-10.869 4.8234-3.5916 10.971-2.552 14.659 1.2287 3.783 3.9696 4.0668 9.3571 0.662 14.744-14.848 23.723-29.697 47.447-44.64 71.17-4.7288 7.4668-12.106 14.366-13.524 22.4-1.3241 7.5613 4.1614 16.068 5.9583 24.291 5.58 25.519 10.876 51.133 16.078 76.652 0.66203 3.0246 0.85118 6.2381 0.66203 9.3571-0.28373 4.8203-2.7427 8.3174-7.3769 9.9242-4.2559 1.5122-9.6468-0.2836-12.484-4.6313-1.9861-3.119-3.4993-6.8051-4.1614-10.397-5.2017-30.056-10.309-60.207-15.038-90.357-0.75661-4.7258-2.7427-7.4668-6.3366-10.586-11.727-10.397-23.077-21.455-33.953-32.797-11.349-11.814-22.036-24.196-32.723-36.672-3.0264-3.4971-5.4854-7.7503-7.0932-12.098-0.75661-1.9848 0.47288-5.671 2.1752-7.3722 1.3241-1.3233 4.918-1.7013 6.8095-0.8507 3.6885 1.6068 7.1878 3.9697 10.214 6.7106 14.376 12.854 28.467 25.803 42.654 38.752 6.1474 5.671 12.106 11.247 19.294 17.864z"/><path d="m1171.6 1250.7s-10.592 3.8751-15.7 5.2928c-34.993 9.2626-74.999-4.2532-95.616-32.041-10.593-14.177-15.038-30.34-16.267-47.542-1.5132-22.778 0.1891-45.273 5.2962-67.484 2.3644-10.208 5.8638-19.943 12.295-28.355 6.7149-8.8845 15.416-13.705 26.86-12.382 16.078 1.7958 31.683 5.0093 46.626 11.436 8.039 3.4026 14.659 8.79 19.294 16.162 1.9861 3.1191 3.4048 6.8052 3.8776 10.491 0.5675 3.8751-1.2294 7.3722-5.0125 9.4516-3.6885 1.9848-6.7149 0.4726-9.2684-2.1739-15.321-15.501-35.844-17.107-55.611-20.699-4.4451-0.8506-7.5661 1.3233-9.0793 5.1039-2.7427 6.7106-5.6746 13.327-7.2824 20.321-4.3505 18.525-5.1071 37.428-3.9722 56.332 2.0807 34.404 22.887 56.237 57.313 60.396 9.7413 1.2287 19.577 1.7013 28.94-1.9848 3.5938-1.4177 6.7149-4.2532 9.9304-6.7106 3.4048-2.552 6.5258-5.3874 11.16-9.3571 1.0404-9.0735 2.2699-20.226 3.6885-32.702-7.7552 1.6068-14.754 2.8355-21.658 4.3477-11.065 2.4574-22.036 5.1984-33.196 7.3723-4.5396 0.8506-9.4576 1.3232-13.997 0.6616-2.459-0.3781-5.4854-3.3081-6.4312-5.7655-0.7566-1.9848 0.9458-5.3874 2.459-7.4667 1.4186-1.8904 3.8776-3.2136 6.242-4.0642 23.36-8.6955 47.288-15.406 72.445-16.635 2.459-0.094 5.1071-0.094 7.4715 0.5671 5.2963 1.5122 8.6065 6.6161 8.2282 13.421-0.3783 7.5613-1.8916 15.028-2.3644 22.495-2.0807 30.434-4.0668 60.868-6.0529 91.397-0.1892 2.4574-0.095 5.0093 0.095 7.5612 0.2837 5.1984 0.3783 5.1984 6.242 7.9394-0.5675 5.1038-3.7831 8.4119-7.9444 10.775-7.3769 4.1587-15.51 1.3232-18.442-6.7106-1.2294-3.4971-1.9861-7.3723-1.9861-11.058 0.2838-13.232 0.9458-26.37 1.4187-39.602 0.095-2.7409 11.097-42.708 11.097-46.205z"/><path d="m1405.6 1253.8c-7.9444 8.79-17.307 8.3174-26.954 4.0642-9.1739-4.0642-18.253-8.601-27.143-13.232-25.819-13.232-51.544-26.559-77.269-39.791-2.7427-1.4178-5.58-2.6465-9.1739-4.3478-0.2837 3.4026-0.662 5.7655-0.5675 8.1284 1.2295 21.077 2.459 42.06 3.8777 63.137 0.5674 8.5064-2.6482 14.366-9.6468 16.068-6.8095 1.6068-13.43-2.4574-15.7-10.302-1.4186-4.8203-2.1752-9.9242-2.2698-14.934-0.7566-41.209-1.7024-82.512-1.8915-123.72-0.095-16.918 1.5132-33.837 2.459-52.078-4.4451 0-9.0793 0.095-13.714 0-3.0264 0-6.3366-0.7561-6.3366-4.1587 0-2.3629 1.797-5.3874 3.7831-6.8051 2.6481-1.9849 6.1474-3.119 9.4576-3.9697 17.875-4.2532 35.939-6.238 54.287-5.5764 3.783 0.095 7.4715 0.8506 11.16 1.6067 13.241 2.552 20.901 10.68 23.833 23.724 3.121 13.705 1.2295 26.937-3.2156 39.98-6.242 18.053-17.402 32.702-31.967 44.895-2.6481 2.1739-5.2016 4.4422-9.0793 7.6558 39.533 18.998 76.89 39.98 115.57 58.411 0.4729-0.4726 0.9457-0.9452 1.4186-1.4177-0.8512-1.7958-1.7023-3.5916-2.6481-5.3874-13.524-27.126-18.915-55.67-16.456-86.01 1.5133-18.052 4.8234-35.538 12.39-52.078 2.459-5.3874 5.7692-10.491 9.0793-15.406 1.5132-2.2684 3.9722-4.3478 6.5258-5.1984 1.8915-0.6616 5.1071-0.094 6.7149 1.1342 1.2295 0.9451 1.5132 3.9696 1.2295 5.86-0.3783 2.3629-1.9861 4.6312-2.9319 6.8996-14.943 38.374-16.74 77.125-3.783 116.44 3.6884 11.153 8.8901 21.55 17.024 30.245 14.943 16.068 33.669 16.446 48.612 0.378 18.253-19.659 25.346-43.666 22.415-69.753-5.7692-50.566-36.034-81.378-82.754-97.918-2.9318-1.0397-6.1474-1.7013-8.9847-2.93-3.8776-1.7958-6.9041-4.6313-6.9986-9.2626 0-3.5916 4.2559-7.6558 9.2684-8.2229 4.6343-0.4726 9.5522-0.378 13.997 0.5671 24.495 5.2929 44.924 18.053 62.326 35.632 36.79 37.239 47.666 93.193 27.522 138.84-5.1071 11.626-11.917 22.211-20.996 31.096-22.698 22.4-52.206 23.44-76.418 2.7409-2.0807-1.5122-3.9722-3.2135-6.0529-5.0093zm-146.69-167.67c1.5133 27.882 2.9319 54.63 4.4451 82.89 21.658-15.028 37.168-32.513 41.046-58.127 0.7566-4.8203 0-10.019-0.5675-14.934-0.5675-4.4423-3.2156-7.6558-7.8498-8.2229-12.106-1.7013-24.212-3.0245-37.074-1.6068z"/><path d="m1557.9 1073.8c0.7566 7.8449 1.797 15.028 1.9861 22.306 0.3783 18.525-0.1891 37.145 0.3783 55.67 0.6621 19.187 0.095 38.562 5.4854 57.182 2.459 8.3174 5.58 16.918 10.309 24.102 11.065 17.107 30.926 19.376 46.626 6.3326 6.9986-5.7655 11.444-13.327 14.754-21.644 7.4715-18.336 11.065-37.617 11.065-57.088 0-28.922-1.5133-57.844-2.2699-86.766-0.094-5.0094 0.095-10.113 0.9458-15.028 0.5675-2.93 2.1752-6.049 4.1613-8.3174 4.3506-4.9148 11.255-3.8751 13.808 2.2684 1.4186 3.4026 1.8915 7.2777 2.2698 10.964 1.7969 20.699 3.6885 41.398 4.918 62.097 1.7023 29.394-0.3784 58.505-8.6065 86.955-3.4047 11.814-8.2281 23.156-15.7 33.081-14.754 19.565-37.736 28.26-59.961 22.589-15.321-3.8752-25.914-13.799-33.574-27.126-6.9987-12.192-10.782-25.425-12.106-39.413-3.6884-39.791-0.3783-79.11 9.6468-117.86 0.7566-3.0245 1.9861-5.9545 3.121-8.8845 0.095-0.2836 0.8512-0.4726 2.7427-1.4178z"/><path d="m1817 1211.6c-0.8512-10.964-1.8916-21.928-2.459-32.892-1.6078-31.757-3.2156-63.515-4.5397-95.272-0.2837-5.9545 0.7566-11.909 1.5133-17.864 0.2837-2.4575 1.1349-5.0094 2.3644-7.0887 2.6481-4.3478 7.2823-4.4423 9.7413 0.094 1.6078 2.93 2.459 6.5216 2.8373 9.8296 4.6342 43.477 9.2684 86.955 13.524 130.53 1.7969 19.092 2.6481 38.279 3.8776 57.466 0.095 1.8903 0.1891 3.7807 0.095 5.671-0.5675 6.5216-4.4451 10.964-10.214 11.814-5.5799 0.8506-10.876-2.552-12.957-8.6955-0.8512-2.6464-1.1349-5.4819-1.4186-8.3174-0.3783-5.0093-0.6621-9.9242-0.9458-15.406-11.633-2.2684-18.726-10.208-25.157-18.903-19.956-26.464-36.601-55.103-53.341-83.646-2.1752-3.6861-4.3505-7.3723-7.5661-12.949-0.5674 3.6861-1.0403 5.0094-1.0403 6.4271 0.3783 37.806 0.7566 75.613 1.0403 113.42 0 2.7409 0 5.8599-1.1349 8.3173-1.9861 4.2533-5.7691 6.5216-10.782 6.3326-5.2962-0.2835-9.1739-3.0245-10.687-7.8448-1.324-4.4423-1.7969-9.2626-1.9861-13.988-1.4186-36.294 0.4729-72.399 2.9319-108.5 0.9458-13.516 1.4186-27.032 2.0807-40.547 0.094-1.8903 0.662-4.2532-0.1892-5.5764-4.3505-6.8052 2.1753-12.382 1.797-18.714-0.1892-2.93 5.4854-3.5916 7.566-0.4726 2.0807 3.0245 3.7831 6.6161 4.4451 10.208 1.3241 6.9942 4.6343 12.76 8.4173 18.62 20.712 31.285 40.952 62.758 61.569 94.043 5.6745 8.6009 20.477 28.958 26.53 37.181 0.8512-0.2836-6.6685-12.89-5.9119-13.268z"/><path d="m1882.9 1280.9c-5.3908-37.806-3.3101-74.951-2.2698-112.1 0.8512-31.19 0.2837-62.38 0.2837-93.476 0-1.8903-0.1891-3.7806-0.5674-5.5764-1.5132-8.5065-0.5675-10.019 7.6607-12.949 14.659-5.1984 29.224-3.5916 43.6 0.7561 50.882 15.595 80.957 51.039 86.348 105.29 4.0667 40.453-10.687 72.683-42.276 97.635-25.914 20.415-55.611 33.175-87.199 41.587-4.445 1.2287-9.363 1.3232-14.092 1.1342-5.9583-0.2836-9.7414-3.5916-10.498-7.8448-0.7566-4.4423 1.797-8.1284 7.5661-10.586 1.7024-0.7561 3.5939-1.1342 5.3909-1.7013 1.8915-0.6616 3.5939-1.3232 6.0528-2.1739zm12.957-213.13c1.5132 8.1284 3.4993 15.123 3.9722 22.306 1.5132 23.818 3.0264 47.73 3.5939 71.643 0.662 27.032 0.095 54.158 0.4728 81.189 0.095 9.6406 1.4187 19.281 2.1753 28.922 2.0807-0.094 3.121 0.094 3.9722-0.2835 21.469-8.601 41.803-18.998 59.11-34.782 18.253-16.54 28.089-36.956 28.278-61.624 0.1892-37.05-12.862-67.579-45.113-88.089-13.146-8.3174-27.238-14.461-42.37-17.958-4.5396-0.9451-9.2684-0.8506-14.092-1.3232z"/><path d="m1556.9 450.58c0.9457-103.68 16.834-183.08 50.22-258.78 9.5522-21.644 20.996-42.343 35.939-60.868 11.16-13.799 23.36-26.559 39.438-34.687 10.498-5.3874 21.469-9.168 33.574-5.671 2.0807 0.5671 4.4451 1.2287 5.9583 2.6464 1.6078 1.6068 2.8373 4.0642 3.121 6.3326 0.095 0.66161-3.2156 2.5519-5.2016 2.741-18.821 2.1739-33.575 12.098-46.437 25.141-13.808 13.988-24.779 30.245-33.953 47.541-21.658 40.547-35.371 84.025-45.586 128.73-9.2684 40.736-14.281 81.945-14.281 123.63 0 68.997 14.186 135.06 44.64 197.25 9.0793 18.525 20.901 35.16 33.764 51.133 1.6077 1.9848 3.783 3.8752 4.2559 6.1435 0.7566 3.4026 1.6078 7.7503 0.1891 10.586-1.9861 4.0642-6.8094 4.2532-10.971 2.93-2.9319-0.94516-5.9583-2.4574-8.2281-4.4422-3.7831-3.308-7.2824-6.9942-10.498-10.869-24.495-29.583-40.289-63.704-52.017-99.998-15.794-48.959-24.59-98.958-23.928-129.49z"/><path d="m1798.5 65.243c-1.4186-5.5764 2.3644-7.5613 5.6746-8.79 10.876-3.9697 21.847-8.1284 33.007-10.869 20.901-5.0093 42.276-7.1832 63.744-7.4668 29.886-0.47258 59.961-1.0397 89.753 0.5671 45.586 2.3629 90.888 8.8845 135.62 18.242 45.397 9.4516 89.942 21.739 132.88 39.508 24.495 10.208 48.139 22.022 70.554 36.105 69.797 43.666 113.4 105.95 132.41 185.72 6.9041 28.922 9.7413 58.222 9.9305 87.994 0.3783 49.337-3.0264 98.107-13.714 146.41-5.0126 22.778-12.011 44.99-21.942 66.161-5.2963 11.247-13.524 19.376-25.252 25.519-0.4729-11.153 1.1349-20.983 4.445-30.907 7.2824-21.455 14.943-42.816 20.523-64.743 8.9847-35.16 12.011-71.359 14.754-107.46 2.1753-28.355 1.135-56.615-2.1752-84.875-7.9444-67.106-32.534-126.56-82.187-174-31.588-30.151-68.851-51.795-108.76-68.997-51.45-22.117-105.17-36.767-160.12-46.88-55.611-10.113-111.69-15.879-168.16-15.028-33.385 0.47258-66.771 2.4574-99.683 8.5064-10.025 1.9848-20.239 3.4971-31.305 5.2929z"/><path d="m1792.6 260.89c-0.7566-4.1587-1.6078-8.3174-2.459-12.854 7.1878-1.2287 9.836 3.6861 13.43 6.8052 13.997 12.665 27.332 26.181 41.992 37.901 52.301 41.492 110.84 71.738 173.36 94.705 59.678 21.833 120.96 37.145 183.95 44.895 30.359 3.6861 60.812 5.7655 91.455 4.9148 15.51-0.47258 30.737 1.3232 45.964 3.8752 0.8511 0.18903 1.5132 0.85065 2.8372 1.7958-14.186 8.5064-29.035 12.476-44.924 12.949-40.1 1.0397-80.011-2.0794-119.54-8.3174-83.322-13.043-162.86-38.279-238.62-75.329-36.885-18.053-71.31-40.075-103.37-65.972-16.172-13.043-31.588-27.032-42.938-44.895-0.2837-0.47258-1.0403-0.56709-1.6078-0.85064 0.095 0.0945 0.4729 0.37806 0.4729 0.37806z"/><path d="m1792.2 260.61c-2.3644 12.949-4.1613 26.086-7.0932 38.941-9.2685 40.264-20.428 79.866-36.223 118.14-13.43 32.608-31.872 62.191-54.381 89.128-5.9583 7.1832-13.241 13.232-20.807 20.794 0 11.72-0.662 25.33 0.095 38.752 1.8915 31.474 5.58 62.664 12.768 93.476 7.6606 32.986 19.199 64.554 37.641 93.193 33.385 52.078 81.619 82.89 140.82 97.729 32.912 8.2229 66.392 11.247 100.16 11.247 77.458 0.0945 153.02-11.814 226.79-35.632 21.28-6.8997 41.897-15.501 61.569-26.275 52.395-28.449 83.984-71.832 95.049-130.34 5.6745-30.434 9.1738-60.963 9.8359-91.869 0.5674-24.858 1.1349-49.715 0.9457-74.573-0.3783-40.547-1.324-81.189-1.9861-121.74 0-1.4177 0.3783-2.8355 2.0807-4.3477 1.8915 9.9242 4.0668 19.848 5.7692 29.867 3.783 23.251 8.4172 46.407 10.782 69.847s3.3102 47.069 3.4994 70.698c0.3783 33.081-1.6078 66.067-6.2421 98.864-3.4993 24.669-8.4172 49.054-17.78 72.21-16.645 41.02-45.68 71.17-82.943 93.949-31.683 19.376-66.392 31.757-102.05 41.682-46.248 12.854-93.252 21.361-141.11 25.33-34.615 2.93-69.135 3.9697-103.84 1.2287-39.154-3.119-77.458-10.302-113.4-26.748-66.298-30.245-109.24-81.284-133.07-149.43-10.971-31.379-17.118-63.798-20.618-96.784-3.5939-33.553-4.8234-67.201-3.8777-100.94 0.5675-22.589 2.0807-45.273 3.9722-67.862 0.7566-9.4516 3.6885-18.714 6.6204-28.071 4.2559 8.1284 6.242 16.446 6.4311 25.141 0.2838 14.744 0.1892 29.583 0.3783 44.328 0.095 6.5216 0.5675 13.138 0.9458 21.739 2.8373-3.2135 4.4451-4.9148 5.8637-6.7106 38.492-47.825 60.434-103.49 77.742-161.43 5.2017-17.485 10.214-35.065 15.51-52.551 1.7024-5.7655 3.5939-11.436 6.0529-16.824 3.5939-7.9393 6.904-8.6009 14.565-3.7806z"/></g><path d="m1816.9 546.8c-0.662-0.0945-2.2698-0.0945-3.7831-0.47258-7.7552-2.0794-14.47-14.744-13.146-24.858 1.0403-7.6558 8.4172-13.988 16.551-13.988 9.6468-0.0945 17.213 6.5216 18.821 16.446 2.0807 12.193-6.242 22.873-18.442 22.873z" stroke-width="41.575"/><path d="m2159.3 498.41c0-10.113 8.039-18.998 17.213-18.998 12.389 0 22.414 9.168 22.698 20.793 0.2838 10.113-8.8901 19.565-19.01 19.659-10.971 0.18903-20.901-10.019-20.901-21.455z" stroke-width="41.575"/><path d="m1949.8 599.64c17.78 6.4271 34.615 14.744 53.53 17.202 30.17 3.9697 55.138-5.1984 75.094-28.071 4.6342-5.2929 8.8902-10.68 17.118-11.247 5.9583 5.0093 7.1878 11.625 3.8776 18.336-3.0264 6.049-6.8095 12.193-11.633 16.918-21.185 20.888-47.099 29.205-76.512 27.315-15.983-1.0397-31.021-5.3874-44.262-14.555-5.2963-3.6861-9.8359-8.6955-14.092-13.61-2.9319-3.2135-4.6343-7.4668-3.1211-12.287z" stroke-width="27.591"/></g>
</svg>
